<svg width="156" height="146" viewBox="0 0 156 146" fill="none" xmlns="http://www.w3.org/2000/svg">
<path d="M53 142.877H36.3333C17.9238 142.877 3 128.416 3 110.578V59.7683C3 48.4739 9.08842 37.9999 19.0566 32.146L60.7232 7.677C71.3425 1.441 84.6575 1.441 95.2767 7.677L136.943 32.146C146.912 37.9999 153 48.4739 153 59.7683V110.578C153 128.416 138.076 142.877 119.667 142.877H103M53 142.877V110.578C53 97.199 64.1925 86.3538 78 86.3538C91.8075 86.3538 103 97.199 103 110.578V142.877M53 142.877H103" stroke="#3C3B3B" stroke-width="6" stroke-linecap="round" stroke-linejoin="round"/>
</svg>
