<svg width="30" height="29" viewBox="0 0 30 29" fill="none" xmlns="http://www.w3.org/2000/svg">
<path d="M10.3333 28H7.22222C3.78578 28 1 25.2086 1 21.7654V11.9578C1 9.77766 2.1365 7.75591 3.99723 6.62595L11.775 1.90278C13.7573 0.699072 16.2427 0.699072 18.225 1.90278L26.0028 6.62595C27.8635 7.75591 29 9.77766 29 11.9578V21.7654C29 25.2086 26.2142 28 22.7778 28H19.6667M10.3333 28V21.7654C10.3333 19.1829 12.4226 17.0895 15 17.0895C17.5774 17.0895 19.6667 19.1829 19.6667 21.7654V28M10.3333 28H19.6667" stroke="#3C3B3B" stroke-width="2" stroke-linecap="round" stroke-linejoin="round"/>
</svg>
