<svg width="30" height="25" viewBox="0 0 30 25" fill="none" xmlns="http://www.w3.org/2000/svg">
<path d="M1 4.36005H4.22902C5.65523 4.36005 7.06082 4.7005 8.32896 5.3531C9.59709 6.00571 10.6911 6.9516 11.5201 8.11215L17.3599 16.2879C18.1889 17.4485 19.2829 18.3944 20.551 19.047C21.8192 19.6996 23.2248 20.04 24.651 20.04H29" stroke="black" stroke-width="2" stroke-linecap="round" stroke-linejoin="round"/>
<path d="M25.64 1L29 4.36L25.64 7.72" stroke="black" stroke-width="2" stroke-linecap="round" stroke-linejoin="round"/>
<path d="M25.64 16.68L29 20.04L25.64 23.4" stroke="black" stroke-width="2" stroke-linecap="round" stroke-linejoin="round"/>
<path d="M17.9075 7.42017C18.7485 6.45896 19.7853 5.68865 20.9483 5.16087C22.1114 4.6331 23.3738 4.36005 24.651 4.36005H29M1 20.04H4.22902C5.50621 20.04 6.76864 19.767 7.93168 19.2392C9.09473 18.7114 10.1315 17.9411 10.9725 16.9799" stroke="black" stroke-width="2" stroke-linecap="round" stroke-linejoin="round"/>
</svg>
