<svg width="39" height="39" viewBox="0 0 39 39" fill="none" xmlns="http://www.w3.org/2000/svg">
<path d="M19.8932 38.6944H19.6993C17.0401 38.6741 14.4117 38.1235 11.968 37.0748C9.52423 36.026 7.31432 34.5003 5.46762 32.5868C2.04319 28.9247 0.0965957 24.124 0.00349986 19.1112C-0.089596 14.0983 1.67741 9.22866 4.9635 5.44198C7.08057 3.06941 9.74202 1.24632 12.7192 0.129349C13.0665 -0.00432253 13.4451 -0.0351811 13.8095 0.0404584C14.1739 0.116098 14.5089 0.295038 14.7744 0.555911C15.0203 0.806655 15.1935 1.11948 15.2754 1.46097C15.3574 1.80246 15.3451 2.1598 15.2398 2.49483C14.1771 5.40501 13.9666 8.55791 14.6329 11.5835C15.2991 14.6092 16.8145 17.382 19.0013 19.5767C21.2084 21.7567 23.9878 23.267 27.0177 23.9327C30.0477 24.5983 33.2042 24.3922 36.1219 23.3382C36.4691 23.2159 36.844 23.1951 37.2027 23.2781C37.5614 23.3611 37.8891 23.5445 38.1473 23.8068C38.4056 24.0692 38.5839 24.3996 38.6613 24.7596C38.7386 25.1195 38.7119 25.494 38.5843 25.8394C37.5938 28.4835 36.0465 30.8838 34.0472 32.8776C32.1875 34.7318 29.9797 36.2002 27.5507 37.1984C25.1216 38.1967 22.5193 38.7051 19.8932 38.6944Z" fill="#FFFFFF"/>
</svg>
