<svg width="39" height="39" viewBox="0 0 39 39" fill="none" xmlns="http://www.w3.org/2000/svg">
<path d="M13.2951 0C13.2951 10.2068 7.77919 19.3384 0 19.3384C7.77919 19.3384 13.2951 28.4706 13.2951 38.6768C13.2951 28.4706 18.8111 19.3384 26.5903 19.3384C18.8111 19.3384 13.2951 10.2068 13.2951 0Z" fill="#FFFFFF"/>
<path d="M29.0076 19.3384C29.0076 24.4424 26.2506 29.0076 22.3597 29.0076C26.2506 29.0076 29.0076 33.574 29.0076 38.6768C29.0076 33.574 31.7646 29.0076 35.6555 29.0076C31.7646 29.0076 29.0076 24.4424 29.0076 19.3384Z" fill="#FFFFFF"/>
<path d="M32.0295 0C32.0295 5.1034 29.2725 9.6692 25.3817 9.6692C29.2719 9.6692 32.0295 14.2356 32.0295 19.3384C32.0295 14.2356 34.7866 9.6692 38.6774 9.6692C34.7866 9.6692 32.0295 5.1034 32.0295 0Z" fill="#FFFFFF"/>
</svg>
