<svg width="44" height="51" viewBox="0 0 44 51" fill="none" xmlns="http://www.w3.org/2000/svg">
<path d="M0 31.9251C1.45344 31.8449 2.68328 31.1771 3.68951 29.9214C4.69574 28.6658 5.21004 27.1697 5.21004 25.4332C5.21004 27.1697 5.70197 28.6658 6.7082 29.9214C7.71443 31.1771 8.94427 31.8449 10.3977 31.9251C8.94427 32.0052 7.71443 32.6731 6.7082 33.9288C5.70197 35.1844 5.21004 36.6805 5.21004 38.417C5.21004 36.6805 4.7181 35.1844 3.68951 33.9288C2.68328 32.6731 1.45344 32.0052 0 31.9251ZM5.21004 12.6899C8.02748 12.5296 10.4201 11.2205 12.3878 8.7627C14.3556 6.30487 15.3394 3.39288 15.3394 0C15.3394 3.39288 16.3233 6.30487 18.291 8.7627C20.2588 11.2205 22.6514 12.5029 25.4912 12.6899C23.6352 12.7968 21.9358 13.4112 20.3706 14.5867C18.8277 15.7355 17.5979 17.285 16.6811 19.2085C15.7866 21.132 15.3394 23.1891 15.3394 25.4332C15.3394 22.0403 14.3556 19.1016 12.3878 16.6438C10.4201 14.1592 8.02748 12.8502 5.21004 12.6899ZM12.6338 41.4625C14.7581 41.3557 16.5693 40.3672 18.0451 38.5238C19.5209 36.6805 20.2588 34.4898 20.2588 31.9251C20.2588 34.4898 20.9967 36.6805 22.4725 38.5238C23.9483 40.3672 25.7371 41.3557 27.8614 41.4625C25.7371 41.5694 23.9483 42.5579 22.4725 44.4013C20.9967 46.2446 20.2588 48.4353 20.2588 51C20.2588 48.4353 19.5209 46.2446 18.0451 44.4013C16.5469 42.5579 14.7581 41.5961 12.6338 41.4625ZM27.8614 28.7994C29.9857 28.6925 31.7745 27.704 33.2503 25.8607C34.7261 24.0173 35.4417 21.8266 35.4417 19.2352C35.4417 21.7999 36.1796 23.9906 37.6554 25.8339C39.1312 27.6773 40.9424 28.6658 43.0667 28.7727C40.9424 28.8795 39.1312 29.868 37.6554 31.7114C36.1796 33.5547 35.4417 35.7454 35.4417 38.3101C35.4417 35.7454 34.7038 33.5547 33.2503 31.7114C31.7745 29.8947 29.9857 28.9062 27.8614 28.7994Z" fill="#FFFFFF"/>
</svg>
