<svg width="39" height="39" viewBox="0 0 39 39" fill="none" xmlns="http://www.w3.org/2000/svg">
<path opacity="0.6" d="M36.0452 19.5009C36.0452 17.8758 38.9895 15.8858 38.5891 14.387C38.1744 12.8361 34.618 12.5862 33.8323 11.2284C33.0353 9.85133 34.5887 6.64823 33.4712 5.53054C32.3534 4.41274 29.1503 5.96603 27.7731 5.16931C26.4153 4.38372 26.1655 0.827031 24.6148 0.412468C23.1159 0.0119683 21.1259 2.95621 19.5009 2.95621C17.8758 2.95621 15.8858 0.0119683 14.3872 0.412468C12.836 0.827143 12.5864 4.38372 11.2285 5.16931C9.85139 5.96637 6.64851 4.41274 5.53071 5.53054C4.41303 6.64823 5.96609 9.85133 5.16936 11.2286C4.384 12.5861 0.82709 12.836 0.412527 14.3869C0.0122521 15.8857 2.95649 17.8757 2.95649 19.5008C2.95649 21.1255 0.0122521 23.1156 0.412527 24.6145C0.827202 26.1653 4.384 26.4152 5.16936 27.7729C5.96643 29.1503 4.41303 32.3531 5.53071 33.4708C6.64851 34.5886 9.85139 33.0353 11.2288 33.8321C12.5864 34.6176 12.836 38.1743 14.3872 38.5889C15.8858 38.9894 17.8759 36.0449 19.5009 36.0449C21.1258 36.0449 23.1159 38.9894 24.6148 38.5889C26.1655 38.1742 26.4153 34.6176 27.7733 33.8321C29.1504 33.035 32.3535 34.5886 33.4712 33.4708C34.5888 32.353 33.0357 29.1503 33.8323 27.7727C34.6179 26.4152 38.1744 26.1653 38.5891 24.6145C38.9895 23.1158 36.0452 21.1256 36.0452 19.5009Z" fill="#FFFFFF"/>
<path d="M32.2729 19.5008C32.2729 25.9518 27.49 31.2859 21.2762 32.1501C20.6881 32.2322 20.095 32.2732 19.5012 32.2727C12.4472 32.2727 6.72791 26.5544 6.72791 19.5009C6.72791 12.4467 12.4471 6.72868 19.5012 6.72868C20.1035 6.72868 20.6962 6.77008 21.2762 6.85119C27.4901 7.71519 32.2729 13.0494 32.2729 19.5008Z" fill="#FFFFFF"/>
</svg>
