<svg xmlns="http://www.w3.org/2000/svg" xmlns:xlink="http://www.w3.org/1999/xlink" width="170" zoomAndPan="magnify" viewBox="0 0 375 374.999991" height="170" preserveAspectRatio="xMidYMid meet" version="1.0"><defs><clipPath id="7732c23461"><path d="M 44 43 L 331 43 L 331 332.390625 L 44 332.390625 Z M 44 43 " clip-rule="nonzero"/></clipPath><clipPath id="1c5600818c"><path d="M 331.179688 248.738281 L 337.5 248.738281 L 337.5 255.058594 L 331.179688 255.058594 Z M 331.179688 248.738281 " clip-rule="nonzero"/></clipPath><clipPath id="e84e05f0c5"><path d="M 334.339844 248.738281 C 332.59375 248.738281 331.179688 250.152344 331.179688 251.898438 C 331.179688 253.640625 332.59375 255.058594 334.339844 255.058594 C 336.085938 255.058594 337.5 253.640625 337.5 251.898438 C 337.5 250.152344 336.085938 248.738281 334.339844 248.738281 Z M 334.339844 248.738281 " clip-rule="nonzero"/></clipPath></defs><g clip-path="url(#7732c23461)"><path fill="#ffffff" d="M 77.21875 79.402344 C 75.515625 79.402344 74.132812 78.019531 74.132812 76.316406 C 74.132812 74.613281 75.515625 73.226562 77.21875 73.226562 C 78.921875 73.226562 80.308594 74.613281 80.308594 76.316406 C 80.308594 78.019531 78.921875 79.402344 77.21875 79.402344 Z M 115.167969 283.835938 C 115.167969 282.132812 113.785156 280.75 112.082031 280.75 C 110.378906 280.75 108.996094 282.132812 108.996094 283.835938 C 108.996094 285.539062 110.378906 286.921875 112.082031 286.921875 C 113.785156 286.921875 115.167969 285.539062 115.167969 283.835938 Z M 168.871094 168.550781 C 168.871094 166.847656 167.488281 165.464844 165.785156 165.464844 C 164.082031 165.464844 162.699219 166.847656 162.699219 168.550781 C 162.699219 170.253906 164.082031 171.640625 165.785156 171.640625 C 167.488281 171.640625 168.871094 170.253906 168.871094 168.550781 Z M 246.367188 157.855469 C 246.367188 156.152344 244.980469 154.765625 243.277344 154.765625 C 241.574219 154.765625 240.191406 156.152344 240.191406 157.855469 C 240.191406 159.558594 241.574219 160.941406 243.277344 160.941406 C 244.980469 160.941406 246.367188 159.609375 246.367188 157.855469 Z M 286.441406 289.636719 C 286.441406 287.933594 285.058594 286.550781 283.355469 286.550781 C 281.652344 286.550781 280.269531 287.933594 280.269531 289.636719 C 280.269531 291.339844 281.652344 292.722656 283.355469 292.722656 C 285.058594 292.722656 286.441406 291.339844 286.441406 289.636719 Z M 50.34375 148.488281 C 50.34375 146.785156 48.957031 145.398438 47.253906 145.398438 C 45.550781 145.398438 44.167969 146.785156 44.167969 148.488281 C 44.167969 150.191406 45.550781 151.574219 47.253906 151.574219 C 48.957031 151.574219 50.34375 150.191406 50.34375 148.488281 Z M 202.828125 64.234375 C 202.828125 62.53125 201.445312 61.144531 199.742188 61.144531 C 198.039062 61.144531 196.65625 62.53125 196.65625 64.234375 C 196.65625 65.9375 198.039062 67.320312 199.742188 67.320312 C 201.445312 67.320312 202.828125 65.9375 202.828125 64.234375 Z M 53.429688 233.007812 C 53.429688 231.304688 52.046875 229.917969 50.34375 229.917969 C 48.640625 229.917969 47.253906 231.304688 47.253906 233.007812 C 47.253906 234.710938 48.640625 236.09375 50.34375 236.09375 C 52.046875 236.09375 53.429688 234.710938 53.429688 233.007812 Z M 265.6875 101.757812 C 265.6875 100.054688 264.300781 98.667969 262.597656 98.667969 C 260.894531 98.667969 259.511719 100.054688 259.511719 101.757812 C 259.511719 103.460938 260.894531 104.84375 262.597656 104.84375 C 264.300781 104.84375 265.6875 103.511719 265.6875 101.757812 Z M 190.585938 329.023438 C 190.585938 327.320312 189.203125 325.933594 187.5 325.933594 C 185.796875 325.933594 184.414062 327.320312 184.414062 329.023438 C 184.414062 330.726562 185.796875 332.109375 187.5 332.109375 C 189.203125 332.109375 190.585938 330.726562 190.585938 329.023438 Z M 330.9375 167.113281 C 330.9375 165.410156 329.554688 164.027344 327.851562 164.027344 C 326.148438 164.027344 324.765625 165.410156 324.765625 167.113281 C 324.765625 168.820312 326.148438 170.203125 327.851562 170.203125 C 329.554688 170.253906 330.9375 168.871094 330.9375 167.113281 Z M 134.4375 43.742188 L 137.042969 53.960938 L 147.261719 56.570312 C 148.167969 56.78125 148.113281 58.058594 147.261719 58.273438 L 137.042969 60.878906 L 134.4375 71.097656 C 134.222656 72.003906 132.945312 71.949219 132.734375 71.097656 L 130.125 60.878906 L 119.90625 58.273438 C 119 58.058594 119.054688 56.78125 119.90625 56.570312 L 130.125 53.960938 L 132.734375 43.742188 C 132.945312 42.890625 134.167969 42.890625 134.4375 43.742188 Z M 133.585938 47.519531 L 131.722656 54.917969 C 131.5625 55.609375 131.457031 55.453125 123.683594 57.421875 C 131.507812 59.390625 131.507812 59.230469 131.722656 59.921875 L 133.585938 67.320312 L 135.445312 59.921875 C 135.605469 59.230469 135.714844 59.390625 143.484375 57.421875 C 135.660156 55.453125 135.660156 55.609375 135.445312 54.917969 Z M 78.070312 251.847656 L 80.679688 262.066406 L 90.898438 264.675781 C 91.804688 264.886719 91.75 266.164062 90.898438 266.378906 L 80.679688 268.984375 L 78.070312 279.203125 C 77.859375 280.109375 76.582031 280.054688 76.367188 279.203125 L 73.761719 268.984375 L 63.542969 266.378906 C 62.636719 266.164062 62.691406 264.886719 63.542969 264.675781 L 73.761719 262.066406 L 76.367188 251.847656 C 76.582031 250.941406 77.859375 250.941406 78.070312 251.847656 Z M 77.21875 255.625 L 75.355469 263.023438 C 75.199219 263.714844 75.089844 263.558594 67.320312 265.527344 C 75.144531 267.496094 75.144531 267.335938 75.355469 268.027344 L 77.21875 275.425781 L 79.082031 268.027344 C 79.242188 267.335938 79.347656 267.496094 87.121094 265.527344 C 79.296875 263.558594 79.296875 263.714844 79.082031 263.023438 Z M 278.140625 70.355469 L 288.570312 73.015625 L 291.234375 83.445312 C 291.394531 84.085938 292.296875 84.085938 292.457031 83.445312 L 295.117188 73.015625 L 305.550781 70.355469 C 306.1875 70.195312 306.1875 69.289062 305.550781 69.128906 L 295.117188 66.46875 L 292.457031 56.035156 C 292.296875 55.398438 291.394531 55.398438 291.234375 56.035156 L 288.570312 66.46875 L 278.140625 69.128906 C 277.5 69.289062 277.5 70.195312 278.140625 70.355469 Z M 263.984375 237 L 274.414062 239.660156 L 277.074219 250.089844 C 277.234375 250.730469 278.140625 250.730469 278.300781 250.089844 L 280.960938 239.660156 L 291.394531 237 C 292.03125 236.839844 292.03125 235.933594 291.394531 235.773438 L 280.960938 233.113281 L 278.300781 222.679688 C 278.140625 222.042969 277.234375 222.042969 277.074219 222.679688 L 274.414062 233.113281 L 263.984375 235.773438 C 263.34375 235.933594 263.34375 236.839844 263.984375 237 Z M 96.0625 152.957031 L 106.492188 155.617188 L 109.15625 166.050781 C 109.3125 166.6875 110.21875 166.6875 110.378906 166.050781 L 113.039062 155.617188 L 123.472656 152.957031 C 124.109375 152.796875 124.109375 151.894531 123.472656 151.734375 L 113.039062 149.074219 L 110.378906 138.640625 C 110.21875 138 109.3125 138 109.15625 138.640625 L 106.492188 149.074219 L 96.0625 151.734375 C 95.421875 151.894531 95.421875 152.796875 96.0625 152.957031 Z M 96.0625 152.957031 " fill-opacity="1" fill-rule="nonzero"/></g><path fill="#ffffff" d="M 304.699219 255.679688 C 304.113281 253.496094 293.949219 258.339844 264.355469 266.695312 C 256.636719 252.328125 249.027344 249.824219 235.988281 242.214844 C 230.34375 238.914062 223 238.808594 216.984375 237.636719 C 200.0625 234.335938 196.921875 231.144531 194.898438 232.15625 C 192.609375 233.273438 194.898438 238.0625 196.070312 240.136719 C 199.476562 246.152344 202.296875 252.433594 208.46875 256.585938 C 228.054688 269.785156 242.585938 265.046875 259.617188 267.921875 C 248.335938 270.371094 222.894531 271.964844 222.789062 271.539062 C 222.148438 269.199219 207.726562 266.589844 198.996094 267.070312 C 190 244.609375 160.144531 229.972656 158.171875 230.878906 C 154.5 232.632812 159.558594 245.300781 159.664062 245.40625 C 169.246094 266.484375 187.394531 271.328125 178.503906 269.625 C 151.574219 264.515625 168.5 267.121094 156.894531 257.96875 C 141.832031 242.214844 139.332031 243.863281 112.773438 235.828125 C 95.902344 230.71875 97.074219 231.621094 92.335938 229.175781 C 85.417969 225.609375 87.972656 232.953125 93.613281 237.957031 C 96.539062 240.671875 99.148438 241.46875 100.957031 243.8125 C 102.339844 245.621094 103.140625 247.75 105.003906 249.664062 C 123.632812 268.773438 151.042969 277.769531 160.835938 267.707031 C 168.605469 270.050781 174.085938 270.902344 178.503906 271.753906 C 167.273438 276.277344 157.164062 283.460938 146.890625 289.210938 C 135.871094 295.386719 131.828125 294.960938 132.519531 297.246094 C 132.785156 298.152344 133.851562 298.367188 135.234375 298.738281 C 153.808594 303.261719 152.480469 307.734375 166.691406 306.082031 C 181.273438 304.378906 191.011719 301.664062 211.609375 282.027344 C 223.957031 270.261719 221.242188 275.105469 248.972656 271.753906 C 231.835938 281.226562 231.089844 278.085938 216.773438 300.496094 C 205.328125 318.324219 209.746094 312.949219 224.703125 308.371094 C 259.191406 297.78125 255.042969 273.402344 258.339844 270.316406 C 258.394531 270.261719 260.949219 269.890625 264.886719 268.773438 C 277.925781 265.101562 290.914062 260.734375 303.902344 257.0625 C 304.539062 256.746094 304.859375 256.210938 304.699219 255.679688 Z M 114.691406 246.949219 C 121.183594 250.625 146.945312 263.023438 158.757812 266.910156 C 146.039062 277.234375 112.082031 258.023438 104.257812 244.929688 C 99.839844 237.582031 94.730469 238.96875 90.527344 230.398438 C 101.171875 235.507812 133.476562 242.800781 140.875 246.949219 C 148.539062 251.261719 154.554688 258.554688 155.671875 259.457031 C 157.746094 261.109375 159.875 263.449219 159.875 265.152344 C 147.847656 261.320312 121.660156 248.601562 115.59375 245.195312 C 114.476562 244.554688 113.519531 246.3125 114.691406 246.949219 Z M 179.570312 266.269531 C 171.957031 260.097656 166.210938 254.882812 161.472656 244.554688 C 160.195312 241.734375 158.226562 234.335938 158.917969 232.847656 C 173.449219 238.277344 190.746094 252.644531 196.921875 267.175781 C 187.394531 268.082031 198.515625 270.6875 178.453125 253.496094 C 167.488281 244.078125 168.660156 243.011719 167.328125 244.023438 C 164.132812 246.472656 184.574219 258.925781 189.949219 268.242188 C 183.347656 269.625 185 270.6875 179.570312 266.269531 Z M 218.636719 273.667969 C 212.835938 277.183594 209.214844 282.238281 203.894531 285.964844 C 195.003906 292.351562 190.585938 301.1875 166.53125 303.953125 C 158.015625 304.910156 154.074219 302.996094 150.933594 301.558594 C 144.972656 298.792969 146.25 299.910156 140.714844 298.046875 C 134.863281 296.128906 134.753906 296.769531 136.777344 296.128906 C 156.894531 289.742188 179.78125 261.695312 216.292969 270.6875 C 197.132812 273.402344 182.230469 289.050781 161.046875 293.839844 C 158.597656 294.375 156.257812 294.109375 153.703125 294.746094 C 152.585938 295.011719 152.746094 296.714844 153.96875 296.714844 C 176.484375 296.714844 202.933594 270.847656 220.285156 272.5 C 220.019531 272.871094 219.488281 273.242188 218.636719 273.667969 Z M 223.105469 306.667969 C 220.445312 307.519531 216.292969 309.648438 213.152344 310.445312 C 233.324219 276.171875 235.242188 282.238281 248.546875 274.253906 C 250.410156 273.136719 251.902344 272.285156 253.976562 271.699219 C 225.769531 298.738281 227.203125 298.152344 228.054688 298.949219 C 229.386719 300.175781 227.417969 299.910156 255.519531 272.925781 C 249.398438 299.800781 232.792969 303.632812 223.105469 306.667969 Z M 211.292969 247.109375 C 216.613281 248.972656 221.667969 251.367188 227.363281 252.488281 C 237.210938 254.457031 241.308594 251.582031 259.832031 265.84375 C 242.320312 262.917969 228.480469 267.601562 209.589844 254.882812 C 202.828125 250.304688 195.75 236.039062 195.910156 233.964844 C 198.625 234.175781 204.105469 237.902344 221.777344 240.351562 C 232.316406 241.789062 232.421875 242.480469 239.925781 246.632812 C 250.730469 252.644531 255.042969 255.574219 260.097656 263.449219 C 237.636719 246.472656 238.648438 255.359375 216.984375 247.003906 C 212.195312 245.140625 211.183594 244.554688 210.757812 245.78125 C 210.492188 246.367188 210.757812 246.898438 211.292969 247.109375 Z M 123.152344 114.796875 C 123.363281 114.742188 122.992188 114.421875 125.601562 118.523438 C 130.710938 126.453125 133.902344 129.378906 146.835938 136.566406 C 154.183594 140.664062 154.449219 141.515625 165.679688 143.058594 C 187.394531 146.039062 189.949219 150.722656 192.769531 149.285156 C 195.058594 148.167969 192.769531 143.378906 191.597656 141.300781 C 188.140625 135.289062 185.371094 129.058594 179.195312 124.855469 C 159.503906 111.601562 145.347656 116.445312 128.050781 113.519531 C 139.4375 111.070312 164.828125 109.582031 164.828125 109.632812 C 165.039062 112.242188 179.621094 114.902344 188.671875 114.421875 C 197.398438 136.296875 226.085938 150.722656 229.066406 150.722656 C 232.792969 150.722656 229.601562 139.4375 228.003906 136.085938 C 218.796875 115.914062 200.699219 110.273438 209.164062 111.867188 C 236.039062 116.976562 219.222656 114.265625 230.769531 123.523438 C 246.046875 139.492188 248.8125 137.789062 274.894531 145.664062 C 291.765625 150.777344 290.59375 149.871094 295.332031 152.320312 C 303.421875 156.523438 298.84375 146.359375 290.273438 140.714844 C 287.347656 138.800781 286.867188 138.214844 285.21875 135.445312 C 276.382812 120.703125 239.445312 100.796875 226.832031 113.839844 C 219.0625 111.496094 213.578125 110.589844 209.164062 109.792969 C 220.390625 105.269531 230.503906 98.082031 240.777344 92.335938 C 252.21875 85.949219 255.839844 86.535156 255.148438 84.296875 C 254.882812 83.394531 253.816406 83.179688 252.433594 82.808594 C 233.859375 78.285156 235.242188 73.8125 220.976562 75.464844 C 204.160156 77.378906 197.027344 81.210938 182.65625 93.824219 C 177.226562 97.65625 173.609375 102.714844 168.125 106.015625 C 163.015625 108.886719 169.777344 106.8125 159.824219 108.035156 C 153.914062 108.78125 149.074219 108.515625 138.695312 109.792969 C 155.992188 100.210938 156.628906 103.40625 170.894531 81.050781 C 176.910156 71.683594 178.613281 68.703125 176.484375 68.703125 C 173.128906 68.652344 167.273438 71.898438 164.082031 72.855469 C 158.917969 74.453125 153.488281 75.996094 148.964844 78.871094 C 132.414062 89.25 130.335938 110.433594 129.328125 111.285156 C 123.789062 112.402344 118.679688 113.890625 103.246094 118.679688 C 83.074219 124.910156 82.648438 124.269531 83.074219 125.761719 C 83.554688 128.050781 86.960938 124.960938 123.152344 114.796875 Z M 272.976562 134.488281 C 266.484375 130.816406 240.722656 118.414062 228.90625 114.53125 C 241.683594 104.152344 275.585938 123.472656 283.410156 136.511719 C 287.878906 143.960938 292.832031 142.367188 297.140625 151.042969 C 286.550781 145.933594 254.191406 138.640625 246.792969 134.488281 C 239.128906 130.179688 233.167969 122.9375 231.996094 121.980469 C 229.917969 120.332031 227.789062 117.988281 227.789062 116.285156 C 239.765625 120.117188 265.898438 132.785156 272.074219 136.246094 C 273.136719 136.882812 274.148438 135.128906 272.976562 134.488281 Z M 208.097656 115.222656 C 215.65625 121.394531 221.457031 126.558594 226.195312 136.9375 C 227.472656 139.757812 229.441406 147.15625 228.75 148.648438 C 214.113281 143.164062 196.867188 128.742188 190.746094 114.316406 C 200.378906 113.414062 188.992188 110.699219 209.214844 127.996094 C 220.390625 137.574219 218.53125 137.683594 219.699219 137.683594 C 226.300781 137.683594 202.773438 122.085938 197.71875 113.253906 C 204.210938 111.867188 202.617188 110.75 208.097656 115.222656 Z M 168.976562 107.769531 C 174.78125 104.257812 178.398438 99.203125 183.722656 95.476562 C 192.449219 89.300781 196.8125 80.308594 221.085938 77.484375 C 229.601562 76.527344 233.539062 78.445312 236.679688 79.882812 C 242.691406 82.648438 241.257812 81.53125 246.898438 83.394531 C 252.753906 85.308594 252.859375 84.671875 250.835938 85.308594 C 230.769531 91.644531 207.832031 119.746094 171.320312 110.75 C 190.535156 108.035156 205.328125 92.390625 226.566406 87.597656 C 228.910156 87.066406 231.410156 87.332031 233.910156 86.695312 C 235.1875 86.375 234.710938 84.457031 233.433594 84.777344 C 228.75 85.949219 224.117188 83.128906 198.144531 97.65625 C 193.460938 100.265625 177.066406 109.847656 167.328125 108.941406 C 167.648438 108.621094 168.179688 108.25 168.976562 107.769531 Z M 164.558594 74.824219 C 167.222656 74.027344 171.375 71.84375 174.511719 71.046875 C 154.394531 105.320312 152.425781 99.253906 139.121094 107.238281 C 137.308594 108.355469 135.765625 109.207031 133.691406 109.792969 C 161.898438 82.753906 160.460938 83.339844 159.609375 82.542969 C 158.28125 81.316406 160.300781 81.585938 132.148438 108.570312 C 138.214844 81.902344 154.394531 77.964844 164.558594 74.824219 Z M 176.375 134.382812 C 171.054688 132.519531 165.996094 130.125 160.300781 128.953125 C 150.457031 126.984375 146.359375 129.859375 127.835938 115.59375 C 145.347656 118.523438 159.023438 113.679688 178.078125 126.558594 C 182.976562 129.859375 185.582031 134.59375 188.351562 139.652344 C 195.269531 152.210938 190.800781 146.359375 183.296875 144.707031 C 159.558594 139.332031 158.015625 140.714844 152.636719 137.574219 C 140.769531 130.605469 134.382812 128.582031 127.625 118.042969 C 145.824219 131.773438 149.976562 129.007812 159.875 130.976562 C 170.414062 133.105469 176.109375 138.109375 176.960938 135.714844 C 177.175781 135.128906 176.910156 134.542969 176.375 134.382812 Z M 176.375 134.382812 " fill-opacity="1" fill-rule="nonzero"/><path fill="#ffffff" d="M 168.710938 191.386719 C 168.710938 181.007812 177.121094 172.597656 187.5 172.597656 C 197.878906 172.597656 206.289062 181.007812 206.289062 191.386719 C 206.289062 201.765625 197.878906 210.171875 187.5 210.171875 C 177.121094 210.171875 168.710938 201.765625 168.710938 191.386719 Z M 62.742188 207.140625 C 75.089844 215.125 91.695312 206.289062 91.695312 191.386719 C 91.695312 179.039062 79.988281 170.042969 68.011719 173.289062 C 83.554688 181.21875 79.773438 204.371094 62.742188 207.140625 Z M 0.203125 202.082031 C 10.636719 217.144531 34.375 209.746094 34.375 191.386719 C 34.375 178.1875 21.070312 169.085938 8.773438 173.929688 C 18.089844 173.183594 25.859375 180.527344 25.859375 189.683594 C 25.859375 202.988281 10.425781 210.226562 0.203125 202.082031 Z M 312.257812 207.140625 C 295.226562 204.320312 291.445312 181.21875 306.988281 173.234375 C 295.066406 169.988281 283.304688 179.039062 283.304688 191.332031 C 283.304688 206.339844 299.910156 215.125 312.257812 207.140625 Z M 374.796875 202.082031 C 364.523438 210.226562 349.140625 203.042969 349.140625 189.683594 C 349.140625 180.527344 356.910156 173.183594 366.226562 173.929688 C 353.929688 169.085938 340.625 178.1875 340.625 191.386719 C 340.625 209.746094 364.363281 217.144531 374.796875 202.082031 Z M 117.136719 204.851562 C 131.988281 219.222656 155.777344 202.402344 147.261719 183.613281 C 142.738281 173.660156 130.65625 169.617188 120.96875 175.046875 C 129.910156 183.722656 128.15625 198.625 117.136719 204.851562 Z M 257.863281 204.851562 C 246.84375 198.625 245.089844 183.667969 253.976562 175.046875 C 244.289062 169.617188 232.207031 173.660156 227.683594 183.613281 C 219.167969 202.402344 243.011719 219.222656 257.863281 204.851562 Z M 257.863281 204.851562 " fill-opacity="1" fill-rule="nonzero"/><g clip-path="url(#1c5600818c)"><g clip-path="url(#e84e05f0c5)"><path fill="#ffffff" d="M 331.179688 248.738281 L 337.5 248.738281 L 337.5 255.058594 L 331.179688 255.058594 Z M 331.179688 248.738281 " fill-opacity="1" fill-rule="nonzero"/></g></g></svg>